<mxfile host="Electron" modified="2025-04-04T09:02:37.179Z" agent="Mozilla/5.0 (Windows NT 10.0; Win64; x64) AppleWebKit/537.36 (KHTML, like Gecko) draw.io/21.2.8 Chrome/112.0.5615.165 Electron/24.2.0 Safari/537.36" etag="6bxxKENmeHoAWjx89d-_" version="21.2.8" type="device">
  <diagram name="Page-1" id="7wAwsUHvS3ezFmTmshoR">
    <mxGraphModel dx="1140" dy="743" grid="1" gridSize="10" guides="1" tooltips="1" connect="1" arrows="1" fold="1" page="1" pageScale="1" pageWidth="730" pageHeight="730" math="1" shadow="0">
      <root>
        <mxCell id="0" />
        <mxCell id="1" parent="0" />
        <mxCell id="I-xw21H332mC9JsBjaV8-10" style="edgeStyle=orthogonalEdgeStyle;rounded=0;orthogonalLoop=1;jettySize=auto;html=1;exitX=0.5;exitY=1;exitDx=0;exitDy=0;startArrow=classic;startFill=1;endArrow=none;endFill=0;strokeWidth=3;" parent="1" source="I-xw21H332mC9JsBjaV8-5" edge="1">
          <mxGeometry relative="1" as="geometry">
            <mxPoint x="228" y="720" as="targetPoint" />
            <mxPoint x="184" y="611" as="sourcePoint" />
            <Array as="points">
              <mxPoint x="228" y="720" />
            </Array>
          </mxGeometry>
        </mxCell>
        <mxCell id="I-xw21H332mC9JsBjaV8-5" value="$$\mathbf{x}^{\text{l}}$$" style="rounded=1;whiteSpace=wrap;html=1;strokeWidth=3;fillColor=#e0f2fe;fontSize=32;" parent="1" vertex="1">
          <mxGeometry x="128" y="625" width="200" height="50" as="geometry" />
        </mxCell>
        <mxCell id="I-xw21H332mC9JsBjaV8-8" value="" style="edgeStyle=orthogonalEdgeStyle;rounded=0;orthogonalLoop=1;jettySize=auto;html=1;exitX=0.5;exitY=0;exitDx=0;exitDy=0;entryX=0.5;entryY=1;entryDx=0;entryDy=0;strokeWidth=3;fontSize=32;labelBackgroundColor=default;spacing=-7;" parent="1" source="I-xw21H332mC9JsBjaV8-5" target="I-xw21H332mC9JsBjaV8-7" edge="1">
          <mxGeometry x="-0.002" relative="1" as="geometry">
            <mxPoint as="offset" />
            <Array as="points">
              <mxPoint x="228" y="605" />
              <mxPoint x="502" y="605" />
            </Array>
          </mxGeometry>
        </mxCell>
        <mxCell id="0mcqwT4ySGAk8G1d19O_-2" value="" style="edgeStyle=orthogonalEdgeStyle;rounded=0;orthogonalLoop=1;jettySize=auto;html=1;exitX=0.5;exitY=0;exitDx=0;exitDy=0;entryX=0.25;entryY=1;entryDx=0;entryDy=0;strokeWidth=3;fontSize=32;labelBackgroundColor=default;spacing=-7;" parent="1" source="I-xw21H332mC9JsBjaV8-5" target="I-xw21H332mC9JsBjaV8-7" edge="1">
          <mxGeometry x="-0.002" relative="1" as="geometry">
            <mxPoint as="offset" />
            <mxPoint x="192" y="619" as="sourcePoint" />
            <mxPoint x="549" y="551" as="targetPoint" />
            <Array as="points">
              <mxPoint x="228" y="605" />
              <mxPoint x="415" y="605" />
            </Array>
          </mxGeometry>
        </mxCell>
        <mxCell id="0mcqwT4ySGAk8G1d19O_-3" value="" style="edgeStyle=orthogonalEdgeStyle;rounded=0;orthogonalLoop=1;jettySize=auto;html=1;exitX=0.5;exitY=0;exitDx=0;exitDy=0;entryX=0.75;entryY=1;entryDx=0;entryDy=0;strokeWidth=3;fontSize=32;labelBackgroundColor=default;spacing=-7;" parent="1" source="I-xw21H332mC9JsBjaV8-5" target="I-xw21H332mC9JsBjaV8-7" edge="1">
          <mxGeometry x="-0.002" relative="1" as="geometry">
            <mxPoint as="offset" />
            <mxPoint x="192" y="619" as="sourcePoint" />
            <mxPoint x="462" y="551" as="targetPoint" />
            <Array as="points">
              <mxPoint x="228" y="605" />
              <mxPoint x="590" y="605" />
            </Array>
          </mxGeometry>
        </mxCell>
        <mxCell id="0mcqwT4ySGAk8G1d19O_-16" value="+" style="ellipse;whiteSpace=wrap;html=1;aspect=fixed;fontSize=42;fillColor=#ECFCCB;strokeWidth=3;fontStyle=0" parent="1" vertex="1">
          <mxGeometry x="188" y="429" width="80" height="80" as="geometry" />
        </mxCell>
        <mxCell id="0mcqwT4ySGAk8G1d19O_-18" style="edgeStyle=orthogonalEdgeStyle;rounded=0;orthogonalLoop=1;jettySize=auto;html=1;exitX=0.5;exitY=0;exitDx=0;exitDy=0;entryX=0.5;entryY=1;entryDx=0;entryDy=0;strokeWidth=3;" parent="1" source="I-xw21H332mC9JsBjaV8-5" target="0mcqwT4ySGAk8G1d19O_-16" edge="1">
          <mxGeometry relative="1" as="geometry" />
        </mxCell>
        <mxCell id="0mcqwT4ySGAk8G1d19O_-20" value="+" style="ellipse;whiteSpace=wrap;html=1;aspect=fixed;fontSize=42;fillColor=#ECFCCB;strokeWidth=3;" parent="1" vertex="1">
          <mxGeometry x="188" y="139" width="80" height="80" as="geometry" />
        </mxCell>
        <mxCell id="U5t_vyJuPKw27BeW5wUO-1" style="edgeStyle=orthogonalEdgeStyle;rounded=0;orthogonalLoop=1;jettySize=auto;html=1;exitX=0.5;exitY=0;exitDx=0;exitDy=0;strokeWidth=3;" edge="1" parent="1" source="I-xw21H332mC9JsBjaV8-7" target="0mcqwT4ySGAk8G1d19O_-16">
          <mxGeometry relative="1" as="geometry" />
        </mxCell>
        <mxCell id="I-xw21H332mC9JsBjaV8-7" value="&lt;font&gt;Multi-head&lt;br&gt;Attention&lt;br&gt;&lt;/font&gt;" style="rounded=1;whiteSpace=wrap;html=1;strokeWidth=3;fillColor=#ffedd5;fontSize=32;fontFamily=Tahoma;" parent="1" vertex="1">
          <mxGeometry x="327" y="490" width="350" height="86" as="geometry" />
        </mxCell>
        <mxCell id="U5t_vyJuPKw27BeW5wUO-7" style="edgeStyle=orthogonalEdgeStyle;rounded=0;orthogonalLoop=1;jettySize=auto;html=1;exitX=0.5;exitY=0;exitDx=0;exitDy=0;entryX=0.5;entryY=1;entryDx=0;entryDy=0;strokeWidth=3;" edge="1" parent="1" source="I-xw21H332mC9JsBjaV8-11" target="0mcqwT4ySGAk8G1d19O_-20">
          <mxGeometry relative="1" as="geometry" />
        </mxCell>
        <mxCell id="I-xw21H332mC9JsBjaV8-11" value="&lt;font&gt;Layer Norm&lt;/font&gt;" style="rounded=1;whiteSpace=wrap;html=1;strokeWidth=3;fillColor=#ecfccb;fontSize=32;fontFamily=Tahoma;" parent="1" vertex="1">
          <mxGeometry x="53" y="339" width="350" height="50" as="geometry" />
        </mxCell>
        <mxCell id="U5t_vyJuPKw27BeW5wUO-2" style="edgeStyle=orthogonalEdgeStyle;rounded=0;orthogonalLoop=1;jettySize=auto;html=1;exitX=0.5;exitY=0;exitDx=0;exitDy=0;entryX=0.5;entryY=1;entryDx=0;entryDy=0;strokeWidth=3;" edge="1" parent="1" source="0mcqwT4ySGAk8G1d19O_-16" target="I-xw21H332mC9JsBjaV8-11">
          <mxGeometry relative="1" as="geometry" />
        </mxCell>
        <mxCell id="0mcqwT4ySGAk8G1d19O_-7" value="&lt;font&gt;Feed&lt;br&gt;Forward&lt;br&gt;&lt;/font&gt;" style="rounded=1;whiteSpace=wrap;html=1;strokeWidth=3;fillColor=#dbeafe;fontSize=32;fontFamily=Tahoma;" parent="1" vertex="1">
          <mxGeometry x="327" y="199" width="350" height="86" as="geometry" />
        </mxCell>
        <mxCell id="U5t_vyJuPKw27BeW5wUO-3" style="edgeStyle=orthogonalEdgeStyle;rounded=0;orthogonalLoop=1;jettySize=auto;html=1;exitX=0.5;exitY=0;exitDx=0;exitDy=0;entryX=0.5;entryY=1;entryDx=0;entryDy=0;strokeWidth=3;" edge="1" parent="1" source="I-xw21H332mC9JsBjaV8-11" target="0mcqwT4ySGAk8G1d19O_-7">
          <mxGeometry relative="1" as="geometry" />
        </mxCell>
        <mxCell id="0mcqwT4ySGAk8G1d19O_-10" style="edgeStyle=orthogonalEdgeStyle;rounded=0;orthogonalLoop=1;jettySize=auto;html=1;exitX=0.5;exitY=0;exitDx=0;exitDy=0;entryX=1;entryY=0.5;entryDx=0;entryDy=0;strokeWidth=3;" parent="1" source="0mcqwT4ySGAk8G1d19O_-7" target="0mcqwT4ySGAk8G1d19O_-20" edge="1">
          <mxGeometry relative="1" as="geometry">
            <mxPoint x="502" y="169.9999999999999" as="targetPoint" />
          </mxGeometry>
        </mxCell>
        <mxCell id="U5t_vyJuPKw27BeW5wUO-6" style="edgeStyle=orthogonalEdgeStyle;rounded=0;orthogonalLoop=1;jettySize=auto;html=1;exitX=0.5;exitY=0;exitDx=0;exitDy=0;strokeWidth=3;" edge="1" parent="1" source="U5t_vyJuPKw27BeW5wUO-4">
          <mxGeometry relative="1" as="geometry">
            <mxPoint x="228" y="10" as="targetPoint" />
          </mxGeometry>
        </mxCell>
        <mxCell id="U5t_vyJuPKw27BeW5wUO-4" value="&lt;font&gt;Layer Norm&lt;/font&gt;" style="rounded=1;whiteSpace=wrap;html=1;strokeWidth=3;fillColor=#ecfccb;fontSize=32;fontFamily=Tahoma;" vertex="1" parent="1">
          <mxGeometry x="53" y="49" width="350" height="50" as="geometry" />
        </mxCell>
        <mxCell id="U5t_vyJuPKw27BeW5wUO-5" style="edgeStyle=orthogonalEdgeStyle;rounded=0;orthogonalLoop=1;jettySize=auto;html=1;exitX=0.5;exitY=0;exitDx=0;exitDy=0;entryX=0.5;entryY=1;entryDx=0;entryDy=0;strokeWidth=3;" edge="1" parent="1" source="0mcqwT4ySGAk8G1d19O_-20" target="U5t_vyJuPKw27BeW5wUO-4">
          <mxGeometry relative="1" as="geometry" />
        </mxCell>
      </root>
    </mxGraphModel>
  </diagram>
</mxfile>
